<svg width="1920" height="457" viewBox="0 0 1920 457" fill="none" xmlns="http://www.w3.org/2000/svg">
<path d="M0 0H1920V457H0V0Z" fill="#F4F0EC"/>
<line x1="665.5" y1="169" x2="665.5" y2="299" stroke="#CDA274"/>
<path d="M478.88 234V233.15L482.195 232.13C484.348 231.393 485.425 229.948 485.425 227.795V186.655L478.54 187.59V186.485C481.883 185.805 485.085 184.842 488.145 183.595C491.262 182.348 494.18 180.903 496.9 179.26L498.005 180.025L497.665 192.18V227.795C497.665 230.005 498.742 231.422 500.895 232.045L504.38 233.15V234H478.88ZM513.782 194.39L514.377 182.32C516.077 181.357 518.173 180.535 520.667 179.855C523.217 179.175 526.078 178.835 529.252 178.835C533.785 178.835 537.44 179.487 540.217 180.79C542.993 182.037 545.033 183.765 546.337 185.975C547.64 188.185 548.292 190.678 548.292 193.455C548.292 197.365 546.393 201.19 542.597 204.93C538.8 208.613 533.615 212.693 527.042 217.17C525.795 218.077 524.322 219.182 522.622 220.485C520.922 221.788 519.335 223.063 517.862 224.31H549.737V234H512.337V226.86C514.377 224.877 516.36 222.922 518.287 220.995C520.27 219.012 522.14 217.142 523.897 215.385C527.977 211.192 531.008 207.48 532.992 204.25C535.032 200.963 536.052 197.45 536.052 193.71C536.052 189.8 535.343 186.655 533.927 184.275C532.51 181.838 530.385 180.62 527.552 180.62C525.795 180.62 524.152 181.073 522.622 181.98C521.148 182.83 519.845 184.332 518.712 186.485L514.632 194.39H513.782Z" fill="#CDA274"/>
<path d="M429.142 281.6L425.16 288.728L421.2 281.6H419.11L424.236 290.378V297H426.106V290.356L431.232 281.6H429.142ZM434.927 297.22C436.012 297.22 436.951 297.007 437.743 296.582C438.549 296.142 439.217 295.497 439.745 294.646L438.315 293.744C437.948 294.36 437.501 294.822 436.973 295.13C436.445 295.423 435.836 295.57 435.147 295.57C434.457 295.57 433.871 295.423 433.387 295.13C432.903 294.837 432.536 294.411 432.287 293.854C432.037 293.297 431.913 292.622 431.913 291.83C431.927 291.053 432.059 290.4 432.309 289.872C432.573 289.329 432.939 288.919 433.409 288.64C433.893 288.347 434.472 288.2 435.147 288.2C435.719 288.2 436.217 288.325 436.643 288.574C437.068 288.823 437.398 289.168 437.633 289.608C437.882 290.048 438.007 290.569 438.007 291.17C438.007 291.273 437.985 291.405 437.941 291.566C437.897 291.713 437.853 291.823 437.809 291.896L438.513 290.884H431.253V292.38H439.899C439.899 292.351 439.899 292.285 439.899 292.182C439.913 292.065 439.921 291.955 439.921 291.852C439.921 290.781 439.73 289.857 439.349 289.08C438.967 288.303 438.417 287.709 437.699 287.298C436.995 286.873 436.144 286.66 435.147 286.66C434.149 286.66 433.269 286.88 432.507 287.32C431.759 287.76 431.172 288.376 430.747 289.168C430.336 289.96 430.131 290.884 430.131 291.94C430.131 292.981 430.329 293.898 430.725 294.69C431.135 295.482 431.7 296.105 432.419 296.56C433.152 297 433.988 297.22 434.927 297.22ZM443.345 293.876C443.345 293.509 443.433 293.194 443.609 292.93C443.785 292.666 444.049 292.461 444.401 292.314C444.768 292.167 445.237 292.094 445.809 292.094C446.425 292.094 447.004 292.175 447.547 292.336C448.09 292.483 448.618 292.732 449.131 293.084V292.05C449.028 291.918 448.83 291.749 448.537 291.544C448.244 291.324 447.848 291.133 447.349 290.972C446.865 290.796 446.256 290.708 445.523 290.708C444.276 290.708 443.301 291.009 442.597 291.61C441.908 292.197 441.563 292.981 441.563 293.964C441.563 294.653 441.724 295.24 442.047 295.724C442.37 296.208 442.795 296.582 443.323 296.846C443.866 297.095 444.445 297.22 445.061 297.22C445.618 297.22 446.176 297.117 446.733 296.912C447.305 296.707 447.782 296.391 448.163 295.966C448.559 295.541 448.757 295.005 448.757 294.36L448.405 293.04C448.405 293.568 448.273 294.037 448.009 294.448C447.76 294.844 447.415 295.152 446.975 295.372C446.55 295.592 446.066 295.702 445.523 295.702C445.098 295.702 444.716 295.636 444.379 295.504C444.056 295.357 443.8 295.145 443.609 294.866C443.433 294.587 443.345 294.257 443.345 293.876ZM443.081 289.212C443.242 289.095 443.462 288.955 443.741 288.794C444.02 288.633 444.357 288.493 444.753 288.376C445.164 288.259 445.618 288.2 446.117 288.2C446.425 288.2 446.718 288.229 446.997 288.288C447.276 288.347 447.518 288.442 447.723 288.574C447.943 288.706 448.112 288.889 448.229 289.124C448.346 289.344 448.405 289.63 448.405 289.982V297H450.165V289.74C450.165 289.08 449.996 288.523 449.659 288.068C449.336 287.613 448.874 287.269 448.273 287.034C447.686 286.785 446.997 286.66 446.205 286.66C445.266 286.66 444.46 286.799 443.785 287.078C443.125 287.357 442.604 287.635 442.223 287.914L443.081 289.212ZM455.125 286.88H453.365V297H455.125V286.88ZM458.183 288.816L459.151 287.364C458.887 287.085 458.593 286.902 458.271 286.814C457.963 286.711 457.625 286.66 457.259 286.66C456.789 286.66 456.327 286.843 455.873 287.21C455.418 287.577 455.044 288.075 454.751 288.706C454.472 289.322 454.333 290.033 454.333 290.84H455.125C455.125 290.356 455.169 289.923 455.257 289.542C455.359 289.161 455.535 288.86 455.785 288.64C456.034 288.42 456.379 288.31 456.819 288.31C457.112 288.31 457.354 288.354 457.545 288.442C457.735 288.515 457.948 288.64 458.183 288.816ZM461.544 293.898L460.158 294.756C460.348 295.152 460.627 295.541 460.994 295.922C461.375 296.303 461.837 296.619 462.38 296.868C462.922 297.103 463.531 297.22 464.206 297.22C465.247 297.22 466.083 296.927 466.714 296.34C467.359 295.753 467.682 295.02 467.682 294.14C467.682 293.539 467.535 293.047 467.242 292.666C466.963 292.285 466.582 291.962 466.098 291.698C465.614 291.419 465.078 291.163 464.492 290.928C464.14 290.781 463.802 290.627 463.48 290.466C463.157 290.305 462.893 290.121 462.688 289.916C462.482 289.711 462.38 289.476 462.38 289.212C462.38 288.875 462.512 288.625 462.776 288.464C463.04 288.303 463.355 288.222 463.722 288.222C464.25 288.222 464.719 288.347 465.13 288.596C465.555 288.845 465.907 289.161 466.186 289.542L467.594 288.64C467.388 288.259 467.102 287.921 466.736 287.628C466.369 287.335 465.944 287.1 465.46 286.924C464.99 286.748 464.484 286.66 463.942 286.66C463.399 286.66 462.871 286.755 462.358 286.946C461.859 287.137 461.448 287.43 461.126 287.826C460.818 288.222 460.664 288.721 460.664 289.322C460.664 289.909 460.81 290.4 461.104 290.796C461.412 291.177 461.786 291.493 462.226 291.742C462.68 291.977 463.128 292.182 463.568 292.358C463.964 292.505 464.338 292.666 464.69 292.842C465.042 293.003 465.328 293.209 465.548 293.458C465.782 293.693 465.9 293.986 465.9 294.338C465.9 294.734 465.753 295.049 465.46 295.284C465.181 295.504 464.792 295.614 464.294 295.614C463.883 295.614 463.502 295.541 463.15 295.394C462.812 295.233 462.512 295.02 462.248 294.756C461.984 294.492 461.749 294.206 461.544 293.898ZM478.244 289.3C478.244 288.141 478.494 287.107 478.992 286.198C479.506 285.289 480.202 284.57 481.082 284.042C481.962 283.514 482.96 283.25 484.074 283.25C485.204 283.25 486.201 283.514 487.066 284.042C487.946 284.57 488.636 285.289 489.134 286.198C489.648 287.107 489.904 288.141 489.904 289.3C489.904 290.459 489.648 291.493 489.134 292.402C488.636 293.311 487.946 294.03 487.066 294.558C486.201 295.086 485.204 295.35 484.074 295.35C482.96 295.35 481.962 295.086 481.082 294.558C480.202 294.03 479.506 293.311 478.992 292.402C478.494 291.493 478.244 290.459 478.244 289.3ZM476.264 289.3C476.264 290.415 476.455 291.456 476.836 292.424C477.232 293.392 477.782 294.235 478.486 294.954C479.19 295.658 480.019 296.215 480.972 296.626C481.926 297.022 482.96 297.22 484.074 297.22C485.204 297.22 486.238 297.022 487.176 296.626C488.13 296.215 488.958 295.658 489.662 294.954C490.366 294.235 490.909 293.392 491.29 292.424C491.686 291.456 491.884 290.415 491.884 289.3C491.884 288.171 491.686 287.129 491.29 286.176C490.909 285.208 490.366 284.372 489.662 283.668C488.958 282.949 488.13 282.392 487.176 281.996C486.238 281.585 485.204 281.38 484.074 281.38C482.96 281.38 481.926 281.585 480.972 281.996C480.019 282.392 479.19 282.949 478.486 283.668C477.782 284.372 477.232 285.208 476.836 286.176C476.455 287.129 476.264 288.171 476.264 289.3ZM493.865 286.88V288.53H498.925V286.88H493.865ZM498.749 281.952L499.717 280.5C499.615 280.353 499.468 280.214 499.277 280.082C499.101 279.95 498.889 279.84 498.639 279.752C498.39 279.664 498.104 279.62 497.781 279.62C497.165 279.62 496.637 279.752 496.197 280.016C495.772 280.265 495.442 280.647 495.207 281.16C494.973 281.673 494.855 282.333 494.855 283.14V297H496.615V283.36C496.615 282.876 496.659 282.487 496.747 282.194C496.835 281.901 496.953 281.695 497.099 281.578C497.261 281.446 497.451 281.38 497.671 281.38C497.847 281.38 498.031 281.417 498.221 281.49C498.427 281.549 498.603 281.703 498.749 281.952ZM509.11 297H516.876V295.24H509.11V297ZM509.11 283.36H516.876V281.6H509.11V283.36ZM509.11 289.52H516.436V287.76H509.11V289.52ZM508.076 281.6V297H509.946V281.6H508.076ZM525.672 286.88L523.252 290.4L520.832 286.88H518.852L522.306 291.786L518.632 297H520.612L523.252 293.172L525.892 297H527.872L524.198 291.786L527.652 286.88H525.672ZM531.39 301.84V286.88H529.63V301.84H531.39ZM539.86 291.94C539.86 290.84 539.633 289.901 539.178 289.124C538.723 288.332 538.115 287.723 537.352 287.298C536.604 286.873 535.768 286.66 534.844 286.66C534.008 286.66 533.267 286.873 532.622 287.298C531.991 287.723 531.493 288.332 531.126 289.124C530.774 289.901 530.598 290.84 530.598 291.94C530.598 293.025 530.774 293.964 531.126 294.756C531.493 295.548 531.991 296.157 532.622 296.582C533.267 297.007 534.008 297.22 534.844 297.22C535.768 297.22 536.604 297.007 537.352 296.582C538.115 296.157 538.723 295.548 539.178 294.756C539.633 293.964 539.86 293.025 539.86 291.94ZM538.078 291.94C538.078 292.717 537.917 293.377 537.594 293.92C537.286 294.463 536.868 294.873 536.34 295.152C535.827 295.431 535.255 295.57 534.624 295.57C534.111 295.57 533.605 295.431 533.106 295.152C532.607 294.873 532.197 294.463 531.874 293.92C531.551 293.377 531.39 292.717 531.39 291.94C531.39 291.163 531.551 290.503 531.874 289.96C532.197 289.417 532.607 289.007 533.106 288.728C533.605 288.449 534.111 288.31 534.624 288.31C535.255 288.31 535.827 288.449 536.34 288.728C536.868 289.007 537.286 289.417 537.594 289.96C537.917 290.503 538.078 291.163 538.078 291.94ZM546.423 297.22C547.508 297.22 548.447 297.007 549.239 296.582C550.045 296.142 550.713 295.497 551.241 294.646L549.811 293.744C549.444 294.36 548.997 294.822 548.469 295.13C547.941 295.423 547.332 295.57 546.643 295.57C545.953 295.57 545.367 295.423 544.883 295.13C544.399 294.837 544.032 294.411 543.783 293.854C543.533 293.297 543.409 292.622 543.409 291.83C543.423 291.053 543.555 290.4 543.805 289.872C544.069 289.329 544.435 288.919 544.905 288.64C545.389 288.347 545.968 288.2 546.643 288.2C547.215 288.2 547.713 288.325 548.139 288.574C548.564 288.823 548.894 289.168 549.129 289.608C549.378 290.048 549.503 290.569 549.503 291.17C549.503 291.273 549.481 291.405 549.437 291.566C549.393 291.713 549.349 291.823 549.305 291.896L550.009 290.884H542.749V292.38H551.395C551.395 292.351 551.395 292.285 551.395 292.182C551.409 292.065 551.417 291.955 551.417 291.852C551.417 290.781 551.226 289.857 550.845 289.08C550.463 288.303 549.913 287.709 549.195 287.298C548.491 286.873 547.64 286.66 546.643 286.66C545.645 286.66 544.765 286.88 544.003 287.32C543.255 287.76 542.668 288.376 542.243 289.168C541.832 289.96 541.627 290.884 541.627 291.94C541.627 292.981 541.825 293.898 542.221 294.69C542.631 295.482 543.196 296.105 543.915 296.56C544.648 297 545.484 297.22 546.423 297.22ZM555.809 286.88H554.049V297H555.809V286.88ZM558.867 288.816L559.835 287.364C559.571 287.085 559.278 286.902 558.955 286.814C558.647 286.711 558.31 286.66 557.943 286.66C557.474 286.66 557.012 286.843 556.557 287.21C556.102 287.577 555.728 288.075 555.435 288.706C555.156 289.322 555.017 290.033 555.017 290.84H555.809C555.809 290.356 555.853 289.923 555.941 289.542C556.044 289.161 556.22 288.86 556.469 288.64C556.718 288.42 557.063 288.31 557.503 288.31C557.796 288.31 558.038 288.354 558.229 288.442C558.42 288.515 558.632 288.64 558.867 288.816ZM561.81 282.7C561.81 283.023 561.927 283.309 562.162 283.558C562.411 283.793 562.697 283.91 563.02 283.91C563.357 283.91 563.643 283.793 563.878 283.558C564.113 283.309 564.23 283.023 564.23 282.7C564.23 282.363 564.113 282.077 563.878 281.842C563.643 281.607 563.357 281.49 563.02 281.49C562.697 281.49 562.411 281.607 562.162 281.842C561.927 282.077 561.81 282.363 561.81 282.7ZM562.14 286.88V297H563.9V286.88H562.14ZM568.537 293.876C568.537 293.509 568.625 293.194 568.801 292.93C568.977 292.666 569.241 292.461 569.593 292.314C569.96 292.167 570.429 292.094 571.001 292.094C571.617 292.094 572.196 292.175 572.739 292.336C573.282 292.483 573.81 292.732 574.323 293.084V292.05C574.22 291.918 574.022 291.749 573.729 291.544C573.436 291.324 573.04 291.133 572.541 290.972C572.057 290.796 571.448 290.708 570.715 290.708C569.468 290.708 568.493 291.009 567.789 291.61C567.1 292.197 566.755 292.981 566.755 293.964C566.755 294.653 566.916 295.24 567.239 295.724C567.562 296.208 567.987 296.582 568.515 296.846C569.058 297.095 569.637 297.22 570.253 297.22C570.81 297.22 571.368 297.117 571.925 296.912C572.497 296.707 572.974 296.391 573.355 295.966C573.751 295.541 573.949 295.005 573.949 294.36L573.597 293.04C573.597 293.568 573.465 294.037 573.201 294.448C572.952 294.844 572.607 295.152 572.167 295.372C571.742 295.592 571.258 295.702 570.715 295.702C570.29 295.702 569.908 295.636 569.571 295.504C569.248 295.357 568.992 295.145 568.801 294.866C568.625 294.587 568.537 294.257 568.537 293.876ZM568.273 289.212C568.434 289.095 568.654 288.955 568.933 288.794C569.212 288.633 569.549 288.493 569.945 288.376C570.356 288.259 570.81 288.2 571.309 288.2C571.617 288.2 571.91 288.229 572.189 288.288C572.468 288.347 572.71 288.442 572.915 288.574C573.135 288.706 573.304 288.889 573.421 289.124C573.538 289.344 573.597 289.63 573.597 289.982V297H575.357V289.74C575.357 289.08 575.188 288.523 574.851 288.068C574.528 287.613 574.066 287.269 573.465 287.034C572.878 286.785 572.189 286.66 571.397 286.66C570.458 286.66 569.652 286.799 568.977 287.078C568.317 287.357 567.796 287.635 567.415 287.914L568.273 289.212ZM585.047 290.84V297H586.807V290.62C586.807 289.403 586.491 288.442 585.861 287.738C585.245 287.019 584.401 286.66 583.331 286.66C582.671 286.66 582.084 286.807 581.571 287.1C581.072 287.393 580.654 287.848 580.317 288.464V286.88H578.557V297H580.317V290.84C580.317 290.341 580.419 289.901 580.625 289.52C580.845 289.139 581.145 288.845 581.527 288.64C581.923 288.42 582.377 288.31 582.891 288.31C583.595 288.31 584.13 288.523 584.497 288.948C584.863 289.373 585.047 290.004 585.047 290.84ZM591.127 291.94C591.127 291.236 591.274 290.613 591.567 290.07C591.875 289.513 592.286 289.08 592.799 288.772C593.327 288.464 593.921 288.31 594.581 288.31C595.124 288.31 595.63 288.398 596.099 288.574C596.583 288.735 597.001 288.955 597.353 289.234C597.705 289.513 597.955 289.821 598.101 290.158V287.958C597.749 287.547 597.243 287.232 596.583 287.012C595.938 286.777 595.271 286.66 594.581 286.66C593.599 286.66 592.711 286.887 591.919 287.342C591.127 287.797 590.497 288.42 590.027 289.212C589.573 290.004 589.345 290.913 589.345 291.94C589.345 292.952 589.573 293.861 590.027 294.668C590.497 295.46 591.127 296.083 591.919 296.538C592.711 296.993 593.599 297.22 594.581 297.22C595.271 297.22 595.938 297.11 596.583 296.89C597.243 296.655 597.749 296.333 598.101 295.922V293.722C597.955 294.045 597.705 294.353 597.353 294.646C597.001 294.925 596.583 295.152 596.099 295.328C595.63 295.489 595.124 295.57 594.581 295.57C593.921 295.57 593.327 295.416 592.799 295.108C592.286 294.785 591.875 294.353 591.567 293.81C591.274 293.267 591.127 292.644 591.127 291.94ZM604.977 297.22C606.063 297.22 607.001 297.007 607.793 296.582C608.6 296.142 609.267 295.497 609.795 294.646L608.365 293.744C607.999 294.36 607.551 294.822 607.023 295.13C606.495 295.423 605.887 295.57 605.197 295.57C604.508 295.57 603.921 295.423 603.437 295.13C602.953 294.837 602.587 294.411 602.337 293.854C602.088 293.297 601.963 292.622 601.963 291.83C601.978 291.053 602.11 290.4 602.359 289.872C602.623 289.329 602.99 288.919 603.459 288.64C603.943 288.347 604.523 288.2 605.197 288.2C605.769 288.2 606.268 288.325 606.693 288.574C607.119 288.823 607.449 289.168 607.683 289.608C607.933 290.048 608.057 290.569 608.057 291.17C608.057 291.273 608.035 291.405 607.991 291.566C607.947 291.713 607.903 291.823 607.859 291.896L608.563 290.884H601.303V292.38H609.949C609.949 292.351 609.949 292.285 609.949 292.182C609.964 292.065 609.971 291.955 609.971 291.852C609.971 290.781 609.781 289.857 609.399 289.08C609.018 288.303 608.468 287.709 607.749 287.298C607.045 286.873 606.195 286.66 605.197 286.66C604.2 286.66 603.32 286.88 602.557 287.32C601.809 287.76 601.223 288.376 600.797 289.168C600.387 289.96 600.181 290.884 600.181 291.94C600.181 292.981 600.379 293.898 600.775 294.69C601.186 295.482 601.751 296.105 602.469 296.56C603.203 297 604.039 297.22 604.977 297.22Z" fill="#4D5053"/>
<line x1="964.5" y1="163" x2="964.5" y2="293" stroke="#CDA274"/>
<path d="M771.88 222.185C771.88 219.295 773.042 216.745 775.365 214.535C777.688 212.325 780.55 210.54 783.95 209.18C776.753 205.44 773.155 200.34 773.155 193.88C773.155 190.763 773.948 188.1 775.535 185.89C777.122 183.623 779.275 181.895 781.995 180.705C784.772 179.458 787.86 178.835 791.26 178.835C794.717 178.835 797.607 179.402 799.93 180.535C802.253 181.612 803.982 183.085 805.115 184.955C806.305 186.768 806.9 188.78 806.9 190.99C806.9 192.69 806.447 194.333 805.54 195.92C804.633 197.507 803.415 198.952 801.885 200.255C800.412 201.558 798.797 202.635 797.04 203.485C801.29 205.582 804.463 207.962 806.56 210.625C808.713 213.232 809.79 216.377 809.79 220.06C809.79 224.65 808.033 228.333 804.52 231.11C801.007 233.887 796.303 235.275 790.41 235.275C784.403 235.275 779.813 234.113 776.64 231.79C773.467 229.41 771.88 226.208 771.88 222.185ZM783.1 189.035C783.1 190.735 783.412 192.322 784.035 193.795C784.658 195.212 785.848 196.657 787.605 198.13C789.418 199.547 792.025 201.077 795.425 202.72C797.125 200.737 798.202 198.838 798.655 197.025C799.108 195.212 799.335 193.455 799.335 191.755C799.335 187.732 798.57 184.87 797.04 183.17C795.51 181.413 793.498 180.535 791.005 180.535C788.795 180.535 786.925 181.3 785.395 182.83C783.865 184.303 783.1 186.372 783.1 189.035ZM780.805 221.335C780.805 224.962 781.712 227.908 783.525 230.175C785.338 232.442 787.775 233.575 790.835 233.575C793.668 233.575 795.822 232.668 797.295 230.855C798.768 228.985 799.505 226.577 799.505 223.63C799.505 221.817 799.108 220.202 798.315 218.785C797.522 217.312 796.133 215.895 794.15 214.535C792.223 213.175 789.532 211.73 786.075 210.2C785.792 210.087 785.508 209.945 785.225 209.775C783.978 210.965 783.043 212.098 782.42 213.175C781.797 214.195 781.372 215.357 781.145 216.66C780.918 217.907 780.805 219.465 780.805 221.335ZM834.606 235.275C831.319 235.275 828.373 234.963 825.766 234.34C823.216 233.773 820.949 232.81 818.966 231.45L819.561 220.74H820.411L824.321 227.71C825.454 229.75 826.843 231.252 828.486 232.215C830.129 233.122 831.943 233.575 833.926 233.575C840.443 233.575 843.701 228.617 843.701 218.7C843.701 214.223 842.823 210.823 841.066 208.5C839.366 206.177 836.816 205.015 833.416 205.015C831.829 205.015 830.243 205.242 828.656 205.695C827.126 206.092 825.709 206.63 824.406 207.31L822.876 206.375L824.746 180.11H854.496V189.8H826.446L825.256 204.505C826.559 203.542 828.316 202.635 830.526 201.785C832.736 200.935 835.059 200.51 837.496 200.51C841.179 200.51 844.438 201.162 847.271 202.465C850.161 203.768 852.399 205.695 853.986 208.245C855.629 210.738 856.451 213.827 856.451 217.51C856.451 221.307 855.488 224.537 853.561 227.2C851.691 229.863 849.113 231.875 845.826 233.235C842.539 234.595 838.799 235.275 834.606 235.275Z" fill="#CDA274"/>
<path d="M743.332 292.336L741.836 293.348C742.173 294.023 742.606 294.661 743.134 295.262C743.677 295.849 744.3 296.325 745.004 296.692C745.723 297.044 746.5 297.22 747.336 297.22C747.952 297.22 748.539 297.117 749.096 296.912C749.668 296.707 750.174 296.413 750.614 296.032C751.069 295.651 751.421 295.189 751.67 294.646C751.934 294.103 752.066 293.495 752.066 292.82C752.066 292.116 751.941 291.515 751.692 291.016C751.443 290.503 751.12 290.07 750.724 289.718C750.343 289.351 749.925 289.051 749.47 288.816C749.015 288.581 748.583 288.391 748.172 288.244C747.277 287.936 746.566 287.628 746.038 287.32C745.525 286.997 745.158 286.66 744.938 286.308C744.718 285.941 744.608 285.545 744.608 285.12C744.608 284.621 744.799 284.174 745.18 283.778C745.561 283.367 746.17 283.162 747.006 283.162C747.607 283.162 748.113 283.279 748.524 283.514C748.949 283.749 749.309 284.049 749.602 284.416C749.895 284.783 750.137 285.157 750.328 285.538L751.934 284.614C751.685 284.071 751.34 283.558 750.9 283.074C750.46 282.575 749.925 282.172 749.294 281.864C748.678 281.541 747.952 281.38 747.116 281.38C746.251 281.38 745.481 281.556 744.806 281.908C744.131 282.245 743.603 282.715 743.222 283.316C742.841 283.917 742.65 284.599 742.65 285.362C742.65 286.066 742.782 286.66 743.046 287.144C743.325 287.628 743.677 288.039 744.102 288.376C744.527 288.699 744.975 288.97 745.444 289.19C745.913 289.395 746.339 289.564 746.72 289.696C747.307 289.901 747.857 290.136 748.37 290.4C748.898 290.649 749.323 290.979 749.646 291.39C749.969 291.801 750.13 292.351 750.13 293.04C750.13 293.744 749.881 294.323 749.382 294.778C748.883 295.233 748.223 295.46 747.402 295.46C746.786 295.46 746.236 295.328 745.752 295.064C745.268 294.8 744.828 294.433 744.432 293.964C744.051 293.495 743.684 292.952 743.332 292.336ZM756.683 293.04V286.88H754.923V293.26C754.923 294.463 755.238 295.423 755.869 296.142C756.499 296.861 757.343 297.22 758.399 297.22C759.073 297.22 759.66 297.073 760.159 296.78C760.657 296.472 761.075 296.017 761.413 295.416V297H763.173V286.88H761.413V293.04C761.413 293.539 761.303 293.979 761.083 294.36C760.877 294.741 760.577 295.042 760.181 295.262C759.799 295.467 759.352 295.57 758.839 295.57C758.135 295.57 757.599 295.35 757.233 294.91C756.866 294.47 756.683 293.847 756.683 293.04ZM767.493 291.94C767.493 291.236 767.64 290.613 767.933 290.07C768.241 289.513 768.652 289.08 769.165 288.772C769.693 288.464 770.287 288.31 770.947 288.31C771.49 288.31 771.996 288.398 772.465 288.574C772.949 288.735 773.367 288.955 773.719 289.234C774.071 289.513 774.321 289.821 774.467 290.158V287.958C774.115 287.547 773.609 287.232 772.949 287.012C772.304 286.777 771.637 286.66 770.947 286.66C769.965 286.66 769.077 286.887 768.285 287.342C767.493 287.797 766.863 288.42 766.393 289.212C765.939 290.004 765.711 290.913 765.711 291.94C765.711 292.952 765.939 293.861 766.393 294.668C766.863 295.46 767.493 296.083 768.285 296.538C769.077 296.993 769.965 297.22 770.947 297.22C771.637 297.22 772.304 297.11 772.949 296.89C773.609 296.655 774.115 296.333 774.467 295.922V293.722C774.321 294.045 774.071 294.353 773.719 294.646C773.367 294.925 772.949 295.152 772.465 295.328C771.996 295.489 771.49 295.57 770.947 295.57C770.287 295.57 769.693 295.416 769.165 295.108C768.652 294.785 768.241 294.353 767.933 293.81C767.64 293.267 767.493 292.644 767.493 291.94ZM778.219 291.94C778.219 291.236 778.366 290.613 778.659 290.07C778.967 289.513 779.378 289.08 779.891 288.772C780.419 288.464 781.013 288.31 781.673 288.31C782.216 288.31 782.722 288.398 783.191 288.574C783.675 288.735 784.093 288.955 784.445 289.234C784.797 289.513 785.047 289.821 785.193 290.158V287.958C784.841 287.547 784.335 287.232 783.675 287.012C783.03 286.777 782.363 286.66 781.673 286.66C780.691 286.66 779.803 286.887 779.011 287.342C778.219 287.797 777.589 288.42 777.119 289.212C776.665 290.004 776.437 290.913 776.437 291.94C776.437 292.952 776.665 293.861 777.119 294.668C777.589 295.46 778.219 296.083 779.011 296.538C779.803 296.993 780.691 297.22 781.673 297.22C782.363 297.22 783.03 297.11 783.675 296.89C784.335 296.655 784.841 296.333 785.193 295.922V293.722C785.047 294.045 784.797 294.353 784.445 294.646C784.093 294.925 783.675 295.152 783.191 295.328C782.722 295.489 782.216 295.57 781.673 295.57C781.013 295.57 780.419 295.416 779.891 295.108C779.378 294.785 778.967 294.353 778.659 293.81C778.366 293.267 778.219 292.644 778.219 291.94ZM792.069 297.22C793.154 297.22 794.093 297.007 794.885 296.582C795.692 296.142 796.359 295.497 796.887 294.646L795.457 293.744C795.09 294.36 794.643 294.822 794.115 295.13C793.587 295.423 792.978 295.57 792.289 295.57C791.6 295.57 791.013 295.423 790.529 295.13C790.045 294.837 789.678 294.411 789.429 293.854C789.18 293.297 789.055 292.622 789.055 291.83C789.07 291.053 789.202 290.4 789.451 289.872C789.715 289.329 790.082 288.919 790.551 288.64C791.035 288.347 791.614 288.2 792.289 288.2C792.861 288.2 793.36 288.325 793.785 288.574C794.21 288.823 794.54 289.168 794.775 289.608C795.024 290.048 795.149 290.569 795.149 291.17C795.149 291.273 795.127 291.405 795.083 291.566C795.039 291.713 794.995 291.823 794.951 291.896L795.655 290.884H788.395V292.38H797.041C797.041 292.351 797.041 292.285 797.041 292.182C797.056 292.065 797.063 291.955 797.063 291.852C797.063 290.781 796.872 289.857 796.491 289.08C796.11 288.303 795.56 287.709 794.841 287.298C794.137 286.873 793.286 286.66 792.289 286.66C791.292 286.66 790.412 286.88 789.649 287.32C788.901 287.76 788.314 288.376 787.889 289.168C787.478 289.96 787.273 290.884 787.273 291.94C787.273 292.981 787.471 293.898 787.867 294.69C788.278 295.482 788.842 296.105 789.561 296.56C790.294 297 791.13 297.22 792.069 297.22ZM800.113 293.898L798.727 294.756C798.918 295.152 799.197 295.541 799.563 295.922C799.945 296.303 800.407 296.619 800.949 296.868C801.492 297.103 802.101 297.22 802.775 297.22C803.817 297.22 804.653 296.927 805.283 296.34C805.929 295.753 806.251 295.02 806.251 294.14C806.251 293.539 806.105 293.047 805.811 292.666C805.533 292.285 805.151 291.962 804.667 291.698C804.183 291.419 803.648 291.163 803.061 290.928C802.709 290.781 802.372 290.627 802.049 290.466C801.727 290.305 801.463 290.121 801.257 289.916C801.052 289.711 800.949 289.476 800.949 289.212C800.949 288.875 801.081 288.625 801.345 288.464C801.609 288.303 801.925 288.222 802.291 288.222C802.819 288.222 803.289 288.347 803.699 288.596C804.125 288.845 804.477 289.161 804.755 289.542L806.163 288.64C805.958 288.259 805.672 287.921 805.305 287.628C804.939 287.335 804.513 287.1 804.029 286.924C803.56 286.748 803.054 286.66 802.511 286.66C801.969 286.66 801.441 286.755 800.927 286.946C800.429 287.137 800.018 287.43 799.695 287.826C799.387 288.222 799.233 288.721 799.233 289.322C799.233 289.909 799.38 290.4 799.673 290.796C799.981 291.177 800.355 291.493 800.795 291.742C801.25 291.977 801.697 292.182 802.137 292.358C802.533 292.505 802.907 292.666 803.259 292.842C803.611 293.003 803.897 293.209 804.117 293.458C804.352 293.693 804.469 293.986 804.469 294.338C804.469 294.734 804.323 295.049 804.029 295.284C803.751 295.504 803.362 295.614 802.863 295.614C802.453 295.614 802.071 295.541 801.719 295.394C801.382 295.233 801.081 295.02 800.817 294.756C800.553 294.492 800.319 294.206 800.113 293.898ZM809.206 293.898L807.82 294.756C808.011 295.152 808.29 295.541 808.656 295.922C809.038 296.303 809.5 296.619 810.042 296.868C810.585 297.103 811.194 297.22 811.868 297.22C812.91 297.22 813.746 296.927 814.376 296.34C815.022 295.753 815.344 295.02 815.344 294.14C815.344 293.539 815.198 293.047 814.904 292.666C814.626 292.285 814.244 291.962 813.76 291.698C813.276 291.419 812.741 291.163 812.154 290.928C811.802 290.781 811.465 290.627 811.142 290.466C810.82 290.305 810.556 290.121 810.35 289.916C810.145 289.711 810.042 289.476 810.042 289.212C810.042 288.875 810.174 288.625 810.438 288.464C810.702 288.303 811.018 288.222 811.384 288.222C811.912 288.222 812.382 288.347 812.792 288.596C813.218 288.845 813.57 289.161 813.848 289.542L815.256 288.64C815.051 288.259 814.765 287.921 814.398 287.628C814.032 287.335 813.606 287.1 813.122 286.924C812.653 286.748 812.147 286.66 811.604 286.66C811.062 286.66 810.534 286.755 810.02 286.946C809.522 287.137 809.111 287.43 808.788 287.826C808.48 288.222 808.326 288.721 808.326 289.322C808.326 289.909 808.473 290.4 808.766 290.796C809.074 291.177 809.448 291.493 809.888 291.742C810.343 291.977 810.79 292.182 811.23 292.358C811.626 292.505 812 292.666 812.352 292.842C812.704 293.003 812.99 293.209 813.21 293.458C813.445 293.693 813.562 293.986 813.562 294.338C813.562 294.734 813.416 295.049 813.122 295.284C812.844 295.504 812.455 295.614 811.956 295.614C811.546 295.614 811.164 295.541 810.812 295.394C810.475 295.233 810.174 295.02 809.91 294.756C809.646 294.492 809.412 294.206 809.206 293.898ZM824.807 281.6V297H826.677V281.6H824.807ZM825.841 283.36H828.987C829.984 283.36 830.791 283.602 831.407 284.086C832.038 284.555 832.353 285.267 832.353 286.22C832.353 287.159 832.038 287.87 831.407 288.354C830.791 288.838 829.984 289.08 828.987 289.08H825.841V290.84H828.987C829.984 290.84 830.872 290.657 831.649 290.29C832.441 289.909 833.064 289.373 833.519 288.684C833.988 287.98 834.223 287.159 834.223 286.22C834.223 285.267 833.988 284.445 833.519 283.756C833.064 283.067 832.441 282.539 831.649 282.172C830.872 281.791 829.984 281.6 828.987 281.6H825.841V283.36ZM838.3 286.88H836.54V297H838.3V286.88ZM841.358 288.816L842.326 287.364C842.062 287.085 841.769 286.902 841.446 286.814C841.138 286.711 840.801 286.66 840.434 286.66C839.965 286.66 839.503 286.843 839.048 287.21C838.593 287.577 838.219 288.075 837.926 288.706C837.647 289.322 837.508 290.033 837.508 290.84H838.3C838.3 290.356 838.344 289.923 838.432 289.542C838.535 289.161 838.711 288.86 838.96 288.64C839.209 288.42 839.554 288.31 839.994 288.31C840.287 288.31 840.529 288.354 840.72 288.442C840.911 288.515 841.123 288.64 841.358 288.816ZM843.099 291.94C843.099 292.952 843.326 293.861 843.781 294.668C844.25 295.46 844.881 296.083 845.673 296.538C846.465 296.993 847.352 297.22 848.335 297.22C849.332 297.22 850.22 296.993 850.997 296.538C851.789 296.083 852.412 295.46 852.867 294.668C853.336 293.861 853.571 292.952 853.571 291.94C853.571 290.913 853.336 290.004 852.867 289.212C852.412 288.42 851.789 287.797 850.997 287.342C850.22 286.887 849.332 286.66 848.335 286.66C847.352 286.66 846.465 286.887 845.673 287.342C844.881 287.797 844.25 288.42 843.781 289.212C843.326 290.004 843.099 290.913 843.099 291.94ZM844.881 291.94C844.881 291.236 845.028 290.613 845.321 290.07C845.629 289.513 846.04 289.08 846.553 288.772C847.081 288.464 847.675 288.31 848.335 288.31C848.995 288.31 849.582 288.464 850.095 288.772C850.623 289.08 851.034 289.513 851.327 290.07C851.635 290.613 851.789 291.236 851.789 291.94C851.789 292.644 851.635 293.267 851.327 293.81C851.034 294.353 850.623 294.785 850.095 295.108C849.582 295.416 848.995 295.57 848.335 295.57C847.675 295.57 847.081 295.416 846.553 295.108C846.04 294.785 845.629 294.353 845.321 293.81C845.028 293.267 844.881 292.644 844.881 291.94ZM855.923 282.7C855.923 283.023 856.04 283.301 856.275 283.536C856.509 283.771 856.788 283.888 857.111 283.888C857.448 283.888 857.727 283.771 857.947 283.536C858.181 283.301 858.299 283.023 858.299 282.7C858.299 282.363 858.181 282.084 857.947 281.864C857.727 281.629 857.448 281.512 857.111 281.512C856.788 281.512 856.509 281.629 856.275 281.864C856.04 282.084 855.923 282.363 855.923 282.7ZM854.185 299.508L853.217 300.96C853.363 301.151 853.532 301.312 853.723 301.444C853.913 301.576 854.126 301.671 854.361 301.73C854.595 301.803 854.859 301.84 855.153 301.84C855.769 301.84 856.297 301.701 856.737 301.422C857.177 301.143 857.507 300.74 857.727 300.212C857.961 299.684 858.079 299.053 858.079 298.32V286.88H856.319V298.1C856.319 298.569 856.282 298.951 856.209 299.244C856.135 299.537 856.018 299.75 855.857 299.882C855.71 300.014 855.512 300.08 855.263 300.08C855.028 300.08 854.815 300.029 854.625 299.926C854.449 299.823 854.302 299.684 854.185 299.508ZM865.845 297.22C866.93 297.22 867.869 297.007 868.661 296.582C869.467 296.142 870.135 295.497 870.663 294.646L869.233 293.744C868.866 294.36 868.419 294.822 867.891 295.13C867.363 295.423 866.754 295.57 866.065 295.57C865.375 295.57 864.789 295.423 864.305 295.13C863.821 294.837 863.454 294.411 863.205 293.854C862.955 293.297 862.831 292.622 862.831 291.83C862.845 291.053 862.977 290.4 863.227 289.872C863.491 289.329 863.857 288.919 864.327 288.64C864.811 288.347 865.39 288.2 866.065 288.2C866.637 288.2 867.135 288.325 867.561 288.574C867.986 288.823 868.316 289.168 868.551 289.608C868.8 290.048 868.925 290.569 868.925 291.17C868.925 291.273 868.903 291.405 868.859 291.566C868.815 291.713 868.771 291.823 868.727 291.896L869.431 290.884H862.171V292.38H870.817C870.817 292.351 870.817 292.285 870.817 292.182C870.831 292.065 870.839 291.955 870.839 291.852C870.839 290.781 870.648 289.857 870.267 289.08C869.885 288.303 869.335 287.709 868.617 287.298C867.913 286.873 867.062 286.66 866.065 286.66C865.067 286.66 864.187 286.88 863.425 287.32C862.677 287.76 862.09 288.376 861.665 289.168C861.254 289.96 861.049 290.884 861.049 291.94C861.049 292.981 861.247 293.898 861.643 294.69C862.053 295.482 862.618 296.105 863.337 296.56C864.07 297 864.906 297.22 865.845 297.22ZM874.263 291.94C874.263 291.236 874.41 290.613 874.703 290.07C875.011 289.513 875.422 289.08 875.935 288.772C876.463 288.464 877.057 288.31 877.717 288.31C878.26 288.31 878.766 288.398 879.235 288.574C879.719 288.735 880.137 288.955 880.489 289.234C880.841 289.513 881.09 289.821 881.237 290.158V287.958C880.885 287.547 880.379 287.232 879.719 287.012C879.074 286.777 878.406 286.66 877.717 286.66C876.734 286.66 875.847 286.887 875.055 287.342C874.263 287.797 873.632 288.42 873.163 289.212C872.708 290.004 872.481 290.913 872.481 291.94C872.481 292.952 872.708 293.861 873.163 294.668C873.632 295.46 874.263 296.083 875.055 296.538C875.847 296.993 876.734 297.22 877.717 297.22C878.406 297.22 879.074 297.11 879.719 296.89C880.379 296.655 880.885 296.333 881.237 295.922V293.722C881.09 294.045 880.841 294.353 880.489 294.646C880.137 294.925 879.719 295.152 879.235 295.328C878.766 295.489 878.26 295.57 877.717 295.57C877.057 295.57 876.463 295.416 875.935 295.108C875.422 294.785 875.011 294.353 874.703 293.81C874.41 293.267 874.263 292.644 874.263 291.94ZM882.657 286.88V288.53H887.717V286.88H882.657ZM884.307 283.36V297H886.067V283.36H884.307Z" fill="#4D5053"/>
<line x1="1254.5" y1="162" x2="1254.5" y2="292" stroke="#CDA274"/>
<path d="M1068.38 234V233.15L1071.7 232.13C1073.85 231.393 1074.93 229.948 1074.93 227.795V186.655L1068.04 187.59V186.485C1071.38 185.805 1074.59 184.842 1077.65 183.595C1080.76 182.348 1083.68 180.903 1086.4 179.26L1087.51 180.025L1087.17 192.18V227.795C1087.17 230.005 1088.24 231.422 1090.4 232.045L1093.88 233.15V234H1068.38ZM1118.16 235.275C1114.87 235.275 1111.92 234.963 1109.32 234.34C1106.77 233.773 1104.5 232.81 1102.52 231.45L1103.11 220.74H1103.96L1107.87 227.71C1109.01 229.75 1110.39 231.252 1112.04 232.215C1113.68 233.122 1115.49 233.575 1117.48 233.575C1123.99 233.575 1127.25 228.617 1127.25 218.7C1127.25 214.223 1126.37 210.823 1124.62 208.5C1122.92 206.177 1120.37 205.015 1116.97 205.015C1115.38 205.015 1113.79 205.242 1112.21 205.695C1110.68 206.092 1109.26 206.63 1107.96 207.31L1106.43 206.375L1108.3 180.11H1138.05V189.8H1110L1108.81 204.505C1110.11 203.542 1111.87 202.635 1114.08 201.785C1116.29 200.935 1118.61 200.51 1121.05 200.51C1124.73 200.51 1127.99 201.162 1130.82 202.465C1133.71 203.768 1135.95 205.695 1137.54 208.245C1139.18 210.738 1140 213.827 1140 217.51C1140 221.307 1139.04 224.537 1137.11 227.2C1135.24 229.863 1132.66 231.875 1129.38 233.235C1126.09 234.595 1122.35 235.275 1118.16 235.275Z" fill="#CDA274"/>
<path d="M1043.23 292.38H1051.37L1050.71 290.62H1043.89L1043.23 292.38ZM1047.26 285.076L1049.9 291.28L1050.08 291.72L1052.32 297H1054.41L1047.26 280.83L1040.11 297H1042.2L1044.49 291.588L1044.66 291.192L1047.26 285.076ZM1057.19 291.94C1057.19 291.236 1057.33 290.613 1057.63 290.07C1057.93 289.513 1058.34 289.08 1058.86 288.772C1059.39 288.464 1059.98 288.31 1060.64 288.31C1061.18 288.31 1061.69 288.398 1062.16 288.574C1062.64 288.735 1063.06 288.955 1063.41 289.234C1063.76 289.513 1064.01 289.821 1064.16 290.158V287.958C1063.81 287.547 1063.3 287.232 1062.64 287.012C1062 286.777 1061.33 286.66 1060.64 286.66C1059.66 286.66 1058.77 286.887 1057.98 287.342C1057.19 287.797 1056.55 288.42 1056.09 289.212C1055.63 290.004 1055.4 290.913 1055.4 291.94C1055.4 292.952 1055.63 293.861 1056.09 294.668C1056.55 295.46 1057.19 296.083 1057.98 296.538C1058.77 296.993 1059.66 297.22 1060.64 297.22C1061.33 297.22 1062 297.11 1062.64 296.89C1063.3 296.655 1063.81 296.333 1064.16 295.922V293.722C1064.01 294.045 1063.76 294.353 1063.41 294.646C1063.06 294.925 1062.64 295.152 1062.16 295.328C1061.69 295.489 1061.18 295.57 1060.64 295.57C1059.98 295.57 1059.39 295.416 1058.86 295.108C1058.34 294.785 1057.93 294.353 1057.63 293.81C1057.33 293.267 1057.19 292.644 1057.19 291.94ZM1065.58 286.88V288.53H1070.64V286.88H1065.58ZM1067.23 283.36V297H1068.99V283.36H1067.23ZM1072.62 282.7C1072.62 283.023 1072.74 283.309 1072.98 283.558C1073.23 283.793 1073.51 283.91 1073.83 283.91C1074.17 283.91 1074.46 283.793 1074.69 283.558C1074.93 283.309 1075.04 283.023 1075.04 282.7C1075.04 282.363 1074.93 282.077 1074.69 281.842C1074.46 281.607 1074.17 281.49 1073.83 281.49C1073.51 281.49 1073.23 281.607 1072.98 281.842C1072.74 282.077 1072.62 282.363 1072.62 282.7ZM1072.95 286.88V297H1074.71V286.88H1072.95ZM1076.91 286.88L1081.75 297.77L1086.59 286.88H1084.61L1081.75 294.03L1078.89 286.88H1076.91ZM1092.06 297.22C1093.15 297.22 1094.09 297.007 1094.88 296.582C1095.69 296.142 1096.35 295.497 1096.88 294.646L1095.45 293.744C1095.08 294.36 1094.64 294.822 1094.11 295.13C1093.58 295.423 1092.97 295.57 1092.28 295.57C1091.59 295.57 1091.01 295.423 1090.52 295.13C1090.04 294.837 1089.67 294.411 1089.42 293.854C1089.17 293.297 1089.05 292.622 1089.05 291.83C1089.06 291.053 1089.2 290.4 1089.44 289.872C1089.71 289.329 1090.08 288.919 1090.54 288.64C1091.03 288.347 1091.61 288.2 1092.28 288.2C1092.85 288.2 1093.35 288.325 1093.78 288.574C1094.2 288.823 1094.53 289.168 1094.77 289.608C1095.02 290.048 1095.14 290.569 1095.14 291.17C1095.14 291.273 1095.12 291.405 1095.08 291.566C1095.03 291.713 1094.99 291.823 1094.94 291.896L1095.65 290.884H1088.39V292.38H1097.03C1097.03 292.351 1097.03 292.285 1097.03 292.182C1097.05 292.065 1097.06 291.955 1097.06 291.852C1097.06 290.781 1096.87 289.857 1096.48 289.08C1096.1 288.303 1095.55 287.709 1094.83 287.298C1094.13 286.873 1093.28 286.66 1092.28 286.66C1091.29 286.66 1090.41 286.88 1089.64 287.32C1088.89 287.76 1088.31 288.376 1087.88 289.168C1087.47 289.96 1087.27 290.884 1087.27 291.94C1087.27 292.981 1087.46 293.898 1087.86 294.69C1088.27 295.482 1088.84 296.105 1089.55 296.56C1090.29 297 1091.12 297.22 1092.06 297.22ZM1106.61 281.6V297H1108.48V281.6H1106.61ZM1107.65 283.36H1110.79C1111.79 283.36 1112.6 283.602 1113.21 284.086C1113.85 284.555 1114.16 285.267 1114.16 286.22C1114.16 287.159 1113.85 287.87 1113.21 288.354C1112.6 288.838 1111.79 289.08 1110.79 289.08H1107.65V290.84H1110.79C1111.79 290.84 1112.68 290.657 1113.46 290.29C1114.25 289.909 1114.87 289.373 1115.33 288.684C1115.8 287.98 1116.03 287.159 1116.03 286.22C1116.03 285.267 1115.8 284.445 1115.33 283.756C1114.87 283.067 1114.25 282.539 1113.46 282.172C1112.68 281.791 1111.79 281.6 1110.79 281.6H1107.65V283.36ZM1120.11 286.88H1118.35V297H1120.11V286.88ZM1123.17 288.816L1124.13 287.364C1123.87 287.085 1123.58 286.902 1123.25 286.814C1122.95 286.711 1122.61 286.66 1122.24 286.66C1121.77 286.66 1121.31 286.843 1120.86 287.21C1120.4 287.577 1120.03 288.075 1119.73 288.706C1119.45 289.322 1119.32 290.033 1119.32 290.84H1120.11C1120.11 290.356 1120.15 289.923 1120.24 289.542C1120.34 289.161 1120.52 288.86 1120.77 288.64C1121.02 288.42 1121.36 288.31 1121.8 288.31C1122.09 288.31 1122.34 288.354 1122.53 288.442C1122.72 288.515 1122.93 288.64 1123.17 288.816ZM1124.91 291.94C1124.91 292.952 1125.13 293.861 1125.59 294.668C1126.06 295.46 1126.69 296.083 1127.48 296.538C1128.27 296.993 1129.16 297.22 1130.14 297.22C1131.14 297.22 1132.03 296.993 1132.8 296.538C1133.6 296.083 1134.22 295.46 1134.67 294.668C1135.14 293.861 1135.38 292.952 1135.38 291.94C1135.38 290.913 1135.14 290.004 1134.67 289.212C1134.22 288.42 1133.6 287.797 1132.8 287.342C1132.03 286.887 1131.14 286.66 1130.14 286.66C1129.16 286.66 1128.27 286.887 1127.48 287.342C1126.69 287.797 1126.06 288.42 1125.59 289.212C1125.13 290.004 1124.91 290.913 1124.91 291.94ZM1126.69 291.94C1126.69 291.236 1126.83 290.613 1127.13 290.07C1127.44 289.513 1127.85 289.08 1128.36 288.772C1128.89 288.464 1129.48 288.31 1130.14 288.31C1130.8 288.31 1131.39 288.464 1131.9 288.772C1132.43 289.08 1132.84 289.513 1133.13 290.07C1133.44 290.613 1133.6 291.236 1133.6 291.94C1133.6 292.644 1133.44 293.267 1133.13 293.81C1132.84 294.353 1132.43 294.785 1131.9 295.108C1131.39 295.416 1130.8 295.57 1130.14 295.57C1129.48 295.57 1128.89 295.416 1128.36 295.108C1127.85 294.785 1127.44 294.353 1127.13 293.81C1126.83 293.267 1126.69 292.644 1126.69 291.94ZM1137.73 282.7C1137.73 283.023 1137.85 283.301 1138.08 283.536C1138.32 283.771 1138.6 283.888 1138.92 283.888C1139.26 283.888 1139.53 283.771 1139.75 283.536C1139.99 283.301 1140.11 283.023 1140.11 282.7C1140.11 282.363 1139.99 282.084 1139.75 281.864C1139.53 281.629 1139.26 281.512 1138.92 281.512C1138.6 281.512 1138.32 281.629 1138.08 281.864C1137.85 282.084 1137.73 282.363 1137.73 282.7ZM1135.99 299.508L1135.02 300.96C1135.17 301.151 1135.34 301.312 1135.53 301.444C1135.72 301.576 1135.93 301.671 1136.17 301.73C1136.4 301.803 1136.67 301.84 1136.96 301.84C1137.58 301.84 1138.1 301.701 1138.54 301.422C1138.98 301.143 1139.31 300.74 1139.53 300.212C1139.77 299.684 1139.89 299.053 1139.89 298.32V286.88H1138.13V298.1C1138.13 298.569 1138.09 298.951 1138.02 299.244C1137.94 299.537 1137.83 299.75 1137.66 299.882C1137.52 300.014 1137.32 300.08 1137.07 300.08C1136.84 300.08 1136.62 300.029 1136.43 299.926C1136.26 299.823 1136.11 299.684 1135.99 299.508ZM1147.65 297.22C1148.74 297.22 1149.68 297.007 1150.47 296.582C1151.27 296.142 1151.94 295.497 1152.47 294.646L1151.04 293.744C1150.67 294.36 1150.23 294.822 1149.7 295.13C1149.17 295.423 1148.56 295.57 1147.87 295.57C1147.18 295.57 1146.6 295.423 1146.11 295.13C1145.63 294.837 1145.26 294.411 1145.01 293.854C1144.76 293.297 1144.64 292.622 1144.64 291.83C1144.65 291.053 1144.78 290.4 1145.03 289.872C1145.3 289.329 1145.66 288.919 1146.13 288.64C1146.62 288.347 1147.2 288.2 1147.87 288.2C1148.44 288.2 1148.94 288.325 1149.37 288.574C1149.79 288.823 1150.12 289.168 1150.36 289.608C1150.61 290.048 1150.73 290.569 1150.73 291.17C1150.73 291.273 1150.71 291.405 1150.67 291.566C1150.62 291.713 1150.58 291.823 1150.53 291.896L1151.24 290.884H1143.98V292.38H1152.62C1152.62 292.351 1152.62 292.285 1152.62 292.182C1152.64 292.065 1152.65 291.955 1152.65 291.852C1152.65 290.781 1152.46 289.857 1152.07 289.08C1151.69 288.303 1151.14 287.709 1150.42 287.298C1149.72 286.873 1148.87 286.66 1147.87 286.66C1146.87 286.66 1145.99 286.88 1145.23 287.32C1144.48 287.76 1143.9 288.376 1143.47 289.168C1143.06 289.96 1142.86 290.884 1142.86 291.94C1142.86 292.981 1143.05 293.898 1143.45 294.69C1143.86 295.482 1144.43 296.105 1145.14 296.56C1145.88 297 1146.71 297.22 1147.65 297.22ZM1156.07 291.94C1156.07 291.236 1156.22 290.613 1156.51 290.07C1156.82 289.513 1157.23 289.08 1157.74 288.772C1158.27 288.464 1158.86 288.31 1159.52 288.31C1160.07 288.31 1160.57 288.398 1161.04 288.574C1161.53 288.735 1161.94 288.955 1162.3 289.234C1162.65 289.513 1162.9 289.821 1163.04 290.158V287.958C1162.69 287.547 1162.19 287.232 1161.53 287.012C1160.88 286.777 1160.21 286.66 1159.52 286.66C1158.54 286.66 1157.65 286.887 1156.86 287.342C1156.07 287.797 1155.44 288.42 1154.97 289.212C1154.52 290.004 1154.29 290.913 1154.29 291.94C1154.29 292.952 1154.52 293.861 1154.97 294.668C1155.44 295.46 1156.07 296.083 1156.86 296.538C1157.65 296.993 1158.54 297.22 1159.52 297.22C1160.21 297.22 1160.88 297.11 1161.53 296.89C1162.19 296.655 1162.69 296.333 1163.04 295.922V293.722C1162.9 294.045 1162.65 294.353 1162.3 294.646C1161.94 294.925 1161.53 295.152 1161.04 295.328C1160.57 295.489 1160.07 295.57 1159.52 295.57C1158.86 295.57 1158.27 295.416 1157.74 295.108C1157.23 294.785 1156.82 294.353 1156.51 293.81C1156.22 293.267 1156.07 292.644 1156.07 291.94ZM1164.46 286.88V288.53H1169.52V286.88H1164.46ZM1166.11 283.36V297H1167.87V283.36H1166.11Z" fill="#4D5053"/>
<path d="M1411 201.615C1411 207.338 1409.67 212.552 1407.01 217.255C1404.34 221.902 1400.43 225.812 1395.28 228.985C1390.18 232.158 1383.91 234.397 1376.49 235.7L1376.15 234.17C1381.19 233.093 1385.25 231.535 1388.31 229.495C1391.37 227.455 1393.66 224.877 1395.19 221.76C1396.78 218.643 1397.8 214.903 1398.25 210.54C1397.06 211.333 1395.59 211.985 1393.83 212.495C1392.07 212.948 1390.09 213.175 1387.88 213.175C1384.71 213.175 1381.85 212.552 1379.3 211.305C1376.8 210.002 1374.82 208.132 1373.35 205.695C1371.87 203.258 1371.14 200.312 1371.14 196.855C1371.14 193.172 1372.04 189.998 1373.86 187.335C1375.67 184.615 1378.05 182.518 1380.99 181.045C1384 179.572 1387.29 178.835 1390.86 178.835C1397.32 178.835 1402.27 180.875 1405.73 184.955C1409.24 188.978 1411 194.532 1411 201.615ZM1383.12 195.75C1383.12 200.907 1383.83 204.647 1385.25 206.97C1386.66 209.237 1388.99 210.37 1392.22 210.37C1394.6 210.37 1396.66 209.86 1398.42 208.84C1398.53 207.593 1398.62 206.347 1398.68 205.1C1398.73 203.797 1398.76 202.437 1398.76 201.02C1398.76 195.807 1398.51 191.727 1398 188.78C1397.49 185.777 1396.66 183.652 1395.53 182.405C1394.4 181.158 1392.87 180.535 1390.94 180.535C1388.33 180.535 1386.38 181.725 1385.08 184.105C1383.77 186.485 1383.12 190.367 1383.12 195.75ZM1436.18 235.275C1432.89 235.275 1429.95 234.963 1427.34 234.34C1424.79 233.773 1422.52 232.81 1420.54 231.45L1421.13 220.74H1421.98L1425.89 227.71C1427.03 229.75 1428.42 231.252 1430.06 232.215C1431.7 233.122 1433.52 233.575 1435.5 233.575C1442.02 233.575 1445.27 228.617 1445.27 218.7C1445.27 214.223 1444.4 210.823 1442.64 208.5C1440.94 206.177 1438.39 205.015 1434.99 205.015C1433.4 205.015 1431.82 205.242 1430.23 205.695C1428.7 206.092 1427.28 206.63 1425.98 207.31L1424.45 206.375L1426.32 180.11H1456.07V189.8H1428.02L1426.83 204.505C1428.13 203.542 1429.89 202.635 1432.1 201.785C1434.31 200.935 1436.63 200.51 1439.07 200.51C1442.75 200.51 1446.01 201.162 1448.84 202.465C1451.73 203.768 1453.97 205.695 1455.56 208.245C1457.2 210.738 1458.02 213.827 1458.02 217.51C1458.02 221.307 1457.06 224.537 1455.13 227.2C1453.26 229.863 1450.69 231.875 1447.4 233.235C1444.11 234.595 1440.37 235.275 1436.18 235.275Z" fill="#CDA274"/>
<path d="M1332.79 289.52H1343.35V287.76H1332.79V289.52ZM1342.1 281.6V297H1343.97V281.6H1342.1ZM1331.76 281.6V297H1333.63V281.6H1331.76ZM1348.39 293.876C1348.39 293.509 1348.48 293.194 1348.65 292.93C1348.83 292.666 1349.09 292.461 1349.44 292.314C1349.81 292.167 1350.28 292.094 1350.85 292.094C1351.47 292.094 1352.05 292.175 1352.59 292.336C1353.13 292.483 1353.66 292.732 1354.17 293.084V292.05C1354.07 291.918 1353.87 291.749 1353.58 291.544C1353.29 291.324 1352.89 291.133 1352.39 290.972C1351.91 290.796 1351.3 290.708 1350.57 290.708C1349.32 290.708 1348.34 291.009 1347.64 291.61C1346.95 292.197 1346.61 292.981 1346.61 293.964C1346.61 294.653 1346.77 295.24 1347.09 295.724C1347.41 296.208 1347.84 296.582 1348.37 296.846C1348.91 297.095 1349.49 297.22 1350.1 297.22C1350.66 297.22 1351.22 297.117 1351.78 296.912C1352.35 296.707 1352.83 296.391 1353.21 295.966C1353.6 295.541 1353.8 295.005 1353.8 294.36L1353.45 293.04C1353.45 293.568 1353.32 294.037 1353.05 294.448C1352.8 294.844 1352.46 295.152 1352.02 295.372C1351.59 295.592 1351.11 295.702 1350.57 295.702C1350.14 295.702 1349.76 295.636 1349.42 295.504C1349.1 295.357 1348.84 295.145 1348.65 294.866C1348.48 294.587 1348.39 294.257 1348.39 293.876ZM1348.12 289.212C1348.29 289.095 1348.51 288.955 1348.78 288.794C1349.06 288.633 1349.4 288.493 1349.8 288.376C1350.21 288.259 1350.66 288.2 1351.16 288.2C1351.47 288.2 1351.76 288.229 1352.04 288.288C1352.32 288.347 1352.56 288.442 1352.77 288.574C1352.99 288.706 1353.16 288.889 1353.27 289.124C1353.39 289.344 1353.45 289.63 1353.45 289.982V297H1355.21V289.74C1355.21 289.08 1355.04 288.523 1354.7 288.068C1354.38 287.613 1353.92 287.269 1353.32 287.034C1352.73 286.785 1352.04 286.66 1351.25 286.66C1350.31 286.66 1349.5 286.799 1348.83 287.078C1348.17 287.357 1347.65 287.635 1347.27 287.914L1348.12 289.212ZM1360.06 301.84V286.88H1358.3V301.84H1360.06ZM1368.53 291.94C1368.53 290.84 1368.3 289.901 1367.85 289.124C1367.39 288.332 1366.78 287.723 1366.02 287.298C1365.27 286.873 1364.44 286.66 1363.51 286.66C1362.68 286.66 1361.94 286.873 1361.29 287.298C1360.66 287.723 1360.16 288.332 1359.79 289.124C1359.44 289.901 1359.27 290.84 1359.27 291.94C1359.27 293.025 1359.44 293.964 1359.79 294.756C1360.16 295.548 1360.66 296.157 1361.29 296.582C1361.94 297.007 1362.68 297.22 1363.51 297.22C1364.44 297.22 1365.27 297.007 1366.02 296.582C1366.78 296.157 1367.39 295.548 1367.85 294.756C1368.3 293.964 1368.53 293.025 1368.53 291.94ZM1366.75 291.94C1366.75 292.717 1366.59 293.377 1366.26 293.92C1365.95 294.463 1365.54 294.873 1365.01 295.152C1364.5 295.431 1363.92 295.57 1363.29 295.57C1362.78 295.57 1362.27 295.431 1361.77 295.152C1361.28 294.873 1360.87 294.463 1360.54 293.92C1360.22 293.377 1360.06 292.717 1360.06 291.94C1360.06 291.163 1360.22 290.503 1360.54 289.96C1360.87 289.417 1361.28 289.007 1361.77 288.728C1362.27 288.449 1362.78 288.31 1363.29 288.31C1363.92 288.31 1364.5 288.449 1365.01 288.728C1365.54 289.007 1365.95 289.417 1366.26 289.96C1366.59 290.503 1366.75 291.163 1366.75 291.94ZM1372.83 301.84V286.88H1371.07V301.84H1372.83ZM1381.3 291.94C1381.3 290.84 1381.07 289.901 1380.61 289.124C1380.16 288.332 1379.55 287.723 1378.79 287.298C1378.04 286.873 1377.2 286.66 1376.28 286.66C1375.44 286.66 1374.7 286.873 1374.06 287.298C1373.43 287.723 1372.93 288.332 1372.56 289.124C1372.21 289.901 1372.03 290.84 1372.03 291.94C1372.03 293.025 1372.21 293.964 1372.56 294.756C1372.93 295.548 1373.43 296.157 1374.06 296.582C1374.7 297.007 1375.44 297.22 1376.28 297.22C1377.2 297.22 1378.04 297.007 1378.79 296.582C1379.55 296.157 1380.16 295.548 1380.61 294.756C1381.07 293.964 1381.3 293.025 1381.3 291.94ZM1379.51 291.94C1379.51 292.717 1379.35 293.377 1379.03 293.92C1378.72 294.463 1378.3 294.873 1377.78 295.152C1377.26 295.431 1376.69 295.57 1376.06 295.57C1375.55 295.57 1375.04 295.431 1374.54 295.152C1374.04 294.873 1373.63 294.463 1373.31 293.92C1372.99 293.377 1372.83 292.717 1372.83 291.94C1372.83 291.163 1372.99 290.503 1373.31 289.96C1373.63 289.417 1374.04 289.007 1374.54 288.728C1375.04 288.449 1375.55 288.31 1376.06 288.31C1376.69 288.31 1377.26 288.449 1377.78 288.728C1378.3 289.007 1378.72 289.417 1379.03 289.96C1379.35 290.503 1379.51 291.163 1379.51 291.94ZM1391.65 286.88H1389.67L1386.55 294.712L1387.27 294.8L1384.06 286.88H1381.97L1385.84 295.57L1383.07 301.84H1385.05L1391.65 286.88ZM1401.55 289.3C1401.55 288.097 1401.82 287.049 1402.35 286.154C1402.89 285.245 1403.59 284.533 1404.46 284.02C1405.32 283.507 1406.26 283.25 1407.28 283.25C1408.01 283.25 1408.68 283.345 1409.28 283.536C1409.89 283.727 1410.45 283.998 1410.95 284.35C1411.45 284.687 1411.87 285.083 1412.22 285.538V283.074C1411.58 282.502 1410.88 282.077 1410.11 281.798C1409.35 281.519 1408.4 281.38 1407.28 281.38C1406.2 281.38 1405.2 281.578 1404.26 281.974C1403.34 282.355 1402.52 282.905 1401.82 283.624C1401.11 284.328 1400.56 285.164 1400.17 286.132C1399.77 287.1 1399.57 288.156 1399.57 289.3C1399.57 290.444 1399.77 291.5 1400.17 292.468C1400.56 293.436 1401.11 294.279 1401.82 294.998C1402.52 295.702 1403.34 296.252 1404.26 296.648C1405.2 297.029 1406.2 297.22 1407.28 297.22C1408.4 297.22 1409.35 297.081 1410.11 296.802C1410.88 296.523 1411.58 296.098 1412.22 295.526V293.062C1411.87 293.517 1411.45 293.92 1410.95 294.272C1410.45 294.609 1409.89 294.873 1409.28 295.064C1408.68 295.255 1408.01 295.35 1407.28 295.35C1406.26 295.35 1405.32 295.093 1404.46 294.58C1403.59 294.067 1402.89 293.355 1402.35 292.446C1401.82 291.537 1401.55 290.488 1401.55 289.3ZM1415.63 281.6V291.94C1415.63 292.703 1415.74 293.407 1415.98 294.052C1416.23 294.697 1416.58 295.255 1417.03 295.724C1417.5 296.193 1418.06 296.56 1418.71 296.824C1419.35 297.088 1420.07 297.22 1420.86 297.22C1421.65 297.22 1422.37 297.088 1423.02 296.824C1423.66 296.56 1424.21 296.193 1424.67 295.724C1425.14 295.255 1425.49 294.697 1425.72 294.052C1425.97 293.407 1426.1 292.703 1426.1 291.94V281.6H1424.23V291.94C1424.23 292.996 1423.94 293.847 1423.37 294.492C1422.8 295.137 1421.96 295.46 1420.86 295.46C1419.76 295.46 1418.93 295.137 1418.35 294.492C1417.78 293.847 1417.5 292.996 1417.5 291.94V281.6H1415.63ZM1430.04 293.898L1428.65 294.756C1428.84 295.152 1429.12 295.541 1429.49 295.922C1429.87 296.303 1430.33 296.619 1430.87 296.868C1431.41 297.103 1432.02 297.22 1432.7 297.22C1433.74 297.22 1434.57 296.927 1435.21 296.34C1435.85 295.753 1436.17 295.02 1436.17 294.14C1436.17 293.539 1436.03 293.047 1435.73 292.666C1435.45 292.285 1435.07 291.962 1434.59 291.698C1434.11 291.419 1433.57 291.163 1432.98 290.928C1432.63 290.781 1432.29 290.627 1431.97 290.466C1431.65 290.305 1431.38 290.121 1431.18 289.916C1430.97 289.711 1430.87 289.476 1430.87 289.212C1430.87 288.875 1431 288.625 1431.27 288.464C1431.53 288.303 1431.85 288.222 1432.21 288.222C1432.74 288.222 1433.21 288.347 1433.62 288.596C1434.05 288.845 1434.4 289.161 1434.68 289.542L1436.09 288.64C1435.88 288.259 1435.59 287.921 1435.23 287.628C1434.86 287.335 1434.44 287.1 1433.95 286.924C1433.48 286.748 1432.98 286.66 1432.43 286.66C1431.89 286.66 1431.36 286.755 1430.85 286.946C1430.35 287.137 1429.94 287.43 1429.62 287.826C1429.31 288.222 1429.16 288.721 1429.16 289.322C1429.16 289.909 1429.3 290.4 1429.6 290.796C1429.9 291.177 1430.28 291.493 1430.72 291.742C1431.17 291.977 1431.62 292.182 1432.06 292.358C1432.46 292.505 1432.83 292.666 1433.18 292.842C1433.53 293.003 1433.82 293.209 1434.04 293.458C1434.27 293.693 1434.39 293.986 1434.39 294.338C1434.39 294.734 1434.24 295.049 1433.95 295.284C1433.67 295.504 1433.28 295.614 1432.79 295.614C1432.37 295.614 1431.99 295.541 1431.64 295.394C1431.3 295.233 1431 295.02 1430.74 294.756C1430.48 294.492 1430.24 294.206 1430.04 293.898ZM1437.17 286.88V288.53H1442.23V286.88H1437.17ZM1438.82 283.36V297H1440.58V283.36H1438.82ZM1443.34 291.94C1443.34 292.952 1443.56 293.861 1444.02 294.668C1444.49 295.46 1445.12 296.083 1445.91 296.538C1446.7 296.993 1447.59 297.22 1448.57 297.22C1449.57 297.22 1450.46 296.993 1451.23 296.538C1452.03 296.083 1452.65 295.46 1453.1 294.668C1453.57 293.861 1453.81 292.952 1453.81 291.94C1453.81 290.913 1453.57 290.004 1453.1 289.212C1452.65 288.42 1452.03 287.797 1451.23 287.342C1450.46 286.887 1449.57 286.66 1448.57 286.66C1447.59 286.66 1446.7 286.887 1445.91 287.342C1445.12 287.797 1444.49 288.42 1444.02 289.212C1443.56 290.004 1443.34 290.913 1443.34 291.94ZM1445.12 291.94C1445.12 291.236 1445.26 290.613 1445.56 290.07C1445.87 289.513 1446.28 289.08 1446.79 288.772C1447.32 288.464 1447.91 288.31 1448.57 288.31C1449.23 288.31 1449.82 288.464 1450.33 288.772C1450.86 289.08 1451.27 289.513 1451.56 290.07C1451.87 290.613 1452.03 291.236 1452.03 291.94C1452.03 292.644 1451.87 293.267 1451.56 293.81C1451.27 294.353 1450.86 294.785 1450.33 295.108C1449.82 295.416 1449.23 295.57 1448.57 295.57C1447.91 295.57 1447.32 295.416 1446.79 295.108C1446.28 294.785 1445.87 294.353 1445.56 293.81C1445.26 293.267 1445.12 292.644 1445.12 291.94ZM1470.3 290.62C1470.3 289.784 1470.17 289.073 1469.91 288.486C1469.66 287.885 1469.29 287.43 1468.81 287.122C1468.32 286.814 1467.74 286.66 1467.05 286.66C1466.37 286.66 1465.77 286.821 1465.24 287.144C1464.72 287.452 1464.28 287.921 1463.92 288.552C1463.69 287.951 1463.32 287.489 1462.8 287.166C1462.3 286.829 1461.7 286.66 1461 286.66C1460.37 286.66 1459.82 286.799 1459.35 287.078C1458.89 287.357 1458.51 287.782 1458.2 288.354V286.88H1456.44V297H1458.2V290.84C1458.2 290.312 1458.3 289.857 1458.49 289.476C1458.68 289.095 1458.95 288.809 1459.3 288.618C1459.66 288.413 1460.07 288.31 1460.56 288.31C1461.22 288.31 1461.7 288.515 1462.01 288.926C1462.33 289.337 1462.49 289.975 1462.49 290.84V297H1464.25V290.84C1464.25 290.312 1464.35 289.857 1464.54 289.476C1464.73 289.095 1465 288.809 1465.35 288.618C1465.71 288.413 1466.12 288.31 1466.61 288.31C1467.27 288.31 1467.75 288.515 1468.06 288.926C1468.38 289.337 1468.54 289.975 1468.54 290.84V297H1470.3V290.62ZM1477.75 297.22C1478.83 297.22 1479.77 297.007 1480.56 296.582C1481.37 296.142 1482.04 295.497 1482.57 294.646L1481.14 293.744C1480.77 294.36 1480.32 294.822 1479.79 295.13C1479.27 295.423 1478.66 295.57 1477.97 295.57C1477.28 295.57 1476.69 295.423 1476.21 295.13C1475.72 294.837 1475.36 294.411 1475.11 293.854C1474.86 293.297 1474.73 292.622 1474.73 291.83C1474.75 291.053 1474.88 290.4 1475.13 289.872C1475.39 289.329 1475.76 288.919 1476.23 288.64C1476.71 288.347 1477.29 288.2 1477.97 288.2C1478.54 288.2 1479.04 288.325 1479.46 288.574C1479.89 288.823 1480.22 289.168 1480.45 289.608C1480.7 290.048 1480.83 290.569 1480.83 291.17C1480.83 291.273 1480.81 291.405 1480.76 291.566C1480.72 291.713 1480.67 291.823 1480.63 291.896L1481.33 290.884H1474.07V292.38H1482.72C1482.72 292.351 1482.72 292.285 1482.72 292.182C1482.73 292.065 1482.74 291.955 1482.74 291.852C1482.74 290.781 1482.55 289.857 1482.17 289.08C1481.79 288.303 1481.24 287.709 1480.52 287.298C1479.82 286.873 1478.96 286.66 1477.97 286.66C1476.97 286.66 1476.09 286.88 1475.33 287.32C1474.58 287.76 1473.99 288.376 1473.57 289.168C1473.16 289.96 1472.95 290.884 1472.95 291.94C1472.95 292.981 1473.15 293.898 1473.55 294.69C1473.96 295.482 1474.52 296.105 1475.24 296.56C1475.97 297 1476.81 297.22 1477.75 297.22ZM1487.13 286.88H1485.37V297H1487.13V286.88ZM1490.19 288.816L1491.16 287.364C1490.9 287.085 1490.6 286.902 1490.28 286.814C1489.97 286.711 1489.63 286.66 1489.27 286.66C1488.8 286.66 1488.34 286.843 1487.88 287.21C1487.43 287.577 1487.05 288.075 1486.76 288.706C1486.48 289.322 1486.34 290.033 1486.34 290.84H1487.13C1487.13 290.356 1487.18 289.923 1487.27 289.542C1487.37 289.161 1487.54 288.86 1487.79 288.64C1488.04 288.42 1488.39 288.31 1488.83 288.31C1489.12 288.31 1489.36 288.354 1489.55 288.442C1489.74 288.515 1489.96 288.64 1490.19 288.816ZM1493.55 293.898L1492.17 294.756C1492.36 295.152 1492.64 295.541 1493 295.922C1493.38 296.303 1493.85 296.619 1494.39 296.868C1494.93 297.103 1495.54 297.22 1496.21 297.22C1497.26 297.22 1498.09 296.927 1498.72 296.34C1499.37 295.753 1499.69 295.02 1499.69 294.14C1499.69 293.539 1499.54 293.047 1499.25 292.666C1498.97 292.285 1498.59 291.962 1498.11 291.698C1497.62 291.419 1497.09 291.163 1496.5 290.928C1496.15 290.781 1495.81 290.627 1495.49 290.466C1495.17 290.305 1494.9 290.121 1494.7 289.916C1494.49 289.711 1494.39 289.476 1494.39 289.212C1494.39 288.875 1494.52 288.625 1494.78 288.464C1495.05 288.303 1495.36 288.222 1495.73 288.222C1496.26 288.222 1496.73 288.347 1497.14 288.596C1497.56 288.845 1497.92 289.161 1498.19 289.542L1499.6 288.64C1499.4 288.259 1499.11 287.921 1498.74 287.628C1498.38 287.335 1497.95 287.1 1497.47 286.924C1497 286.748 1496.49 286.66 1495.95 286.66C1495.41 286.66 1494.88 286.755 1494.37 286.946C1493.87 287.137 1493.46 287.43 1493.13 287.826C1492.83 288.222 1492.67 288.721 1492.67 289.322C1492.67 289.909 1492.82 290.4 1493.11 290.796C1493.42 291.177 1493.79 291.493 1494.23 291.742C1494.69 291.977 1495.14 292.182 1495.58 292.358C1495.97 292.505 1496.35 292.666 1496.7 292.842C1497.05 293.003 1497.34 293.209 1497.56 293.458C1497.79 293.693 1497.91 293.986 1497.91 294.338C1497.91 294.734 1497.76 295.049 1497.47 295.284C1497.19 295.504 1496.8 295.614 1496.3 295.614C1495.89 295.614 1495.51 295.541 1495.16 295.394C1494.82 295.233 1494.52 295.02 1494.26 294.756C1493.99 294.492 1493.76 294.206 1493.55 293.898Z" fill="#4D5053"/>
</svg>
